<?xml version="1.0" standalone="no"?>
<!DOCTYPE svg PUBLIC "-//W3C//DTD SVG 20010904//EN"
 "http://www.w3.org/TR/2001/REC-SVG-20010904/DTD/svg10.dtd">
<svg version="1.0" xmlns="http://www.w3.org/2000/svg"
 width="512.000000pt" height="512.000000pt" viewBox="0 0 512.000000 512.000000"
 preserveAspectRatio="xMidYMid meet">

<g transform="translate(0.000000,512.000000) scale(0.100000,-0.100000)"
fill="#000000" stroke="none">
<path d="M1553 4900 c-354 -37 -653 -179 -904 -429 -175 -176 -283 -349 -359
-580 -54 -162 -73 -286 -73 -461 0 -404 146 -755 432 -1041 196 -196 419 -323
679 -389 l42 -11 0 -840 c0 -933 -3 -891 65 -923 30 -15 192 -16 1659 -14
l1626 3 32 33 33 32 0 1640 0 1640 -33 32 -32 33 -784 3 -783 2 -13 73 c-17
100 -80 287 -128 383 -140 278 -387 526 -661 664 -234 117 -548 176 -798 150z
m353 -225 c517 -90 918 -483 1024 -1005 25 -121 27 -328 5 -453 -47 -271 -178
-514 -379 -704 -389 -369 -966 -450 -1444 -203 -294 151 -516 411 -622 728
-81 242 -80 542 1 787 66 196 158 344 309 496 189 190 410 307 669 353 105 19
328 20 437 1z m1524 -1911 c0 -513 -3 -644 -12 -638 -7 5 -80 53 -163 107
-135 90 -153 99 -186 94 -25 -3 -85 -37 -186 -105 l-148 -100 -3 130 -3 129
62 67 c199 217 346 554 365 832 9 143 -6 130 144 130 l130 0 0 -646z m1130
229 c0 -230 3 -901 7 -1490 l6 -1073 -1496 0 -1497 0 0 765 0 765 88 0 c232 1
500 68 734 186 l108 54 0 -145 c0 -103 4 -156 14 -180 15 -36 59 -65 100 -65
15 0 106 54 237 141 l212 140 210 -141 c202 -137 212 -142 251 -137 29 4 49
15 69 37 l27 30 0 765 0 765 465 0 465 0 0 -417z"/>
<path d="M1633 4340 c-22 -13 -35 -31 -43 -60 -7 -27 -10 -186 -8 -485 l3
-445 33 -32 32 -33 298 -3 c320 -3 357 1 391 45 25 31 27 89 5 122 -32 45 -66
51 -314 51 l-230 0 0 380 c0 419 -2 435 -59 464 -40 21 -69 20 -108 -4z"/>
<path d="M1903 1119 c-74 -22 -97 -111 -44 -171 l29 -33 264 -3 c262 -3 264
-3 298 20 72 49 60 158 -20 185 -42 14 -478 16 -527 2z"/>
<path d="M1881 806 c-68 -38 -66 -152 4 -184 18 -8 106 -12 286 -12 l261 0 34
34 c26 26 34 42 34 71 0 29 -8 45 -34 71 l-34 34 -263 0 c-200 -1 -270 -4
-288 -14z"/>
</g>
</svg>
